<?xml version="1.0" encoding="utf-8"?>
<!-- Generator: Adobe Illustrator 18.0.0, SVG Export Plug-In . SVG Version: 6.00 Build 0)  -->
<!DOCTYPE svg PUBLIC "-//W3C//DTD SVG 1.1//EN" "http://www.w3.org/Graphics/SVG/1.1/DTD/svg11.dtd">
<svg version="1.1" id="Layer_1" xmlns="http://www.w3.org/2000/svg" xmlns:xlink="http://www.w3.org/1999/xlink" x="0px" y="0px"
	 viewBox="0 0 600 382" enable-background="new 0 0 600 382" xml:space="preserve">
<pattern  width="28.8" height="28.8" patternUnits="userSpaceOnUse" id="Unnamed_Pattern_2" viewBox="2.9 -31.7 28.8 28.8" overflow="visible">
	<g>
		<polygon fill="none" points="2.9,-31.7 31.7,-31.7 31.7,-2.9 2.9,-2.9 		"/>
		<g>
			<defs>
				<rect id="SVGID_1_" x="2.9" y="-31.7" width="28.8" height="28.8"/>
			</defs>
			<clipPath id="SVGID_2_">
				<use xlink:href="#SVGID_1_"  overflow="visible"/>
			</clipPath>
			<path clip-path="url(#SVGID_2_)" fill="#FAF399" d="M31.7-34.6c1.6,0,2.9,1.3,2.9,2.9c0,1.6-1.3,2.9-2.9,2.9s-2.9-1.3-2.9-2.9
				C28.8-33.3,30.1-34.6,31.7-34.6"/>
			<path clip-path="url(#SVGID_2_)" fill="#FAF399" d="M17.3-34.6c1.6,0,2.9,1.3,2.9,2.9c0,1.6-1.3,2.9-2.9,2.9
				c-1.6,0-2.9-1.3-2.9-2.9C14.4-33.3,15.7-34.6,17.3-34.6"/>
			<path clip-path="url(#SVGID_2_)" fill="#FAF399" d="M31.7-20.2c1.6,0,2.9,1.3,2.9,2.9s-1.3,2.9-2.9,2.9s-2.9-1.3-2.9-2.9
				S30.1-20.2,31.7-20.2"/>
			<path clip-path="url(#SVGID_2_)" fill="#FAF399" d="M17.3-20.2c1.6,0,2.9,1.3,2.9,2.9s-1.3,2.9-2.9,2.9c-1.6,0-2.9-1.3-2.9-2.9
				S15.7-20.2,17.3-20.2"/>
			<path clip-path="url(#SVGID_2_)" fill="#FAF399" d="M10.1-27.4c1.6,0,2.9,1.3,2.9,2.9c0,1.6-1.3,2.9-2.9,2.9
				c-1.6,0-2.9-1.3-2.9-2.9C7.2-26.1,8.5-27.4,10.1-27.4"/>
			<path clip-path="url(#SVGID_2_)" fill="#FAF399" d="M24.5-27.4c1.6,0,2.9,1.3,2.9,2.9c0,1.6-1.3,2.9-2.9,2.9
				c-1.6,0-2.9-1.3-2.9-2.9C21.6-26.1,22.9-27.4,24.5-27.4"/>
			<path clip-path="url(#SVGID_2_)" fill="#FAF399" d="M10.1-13c1.6,0,2.9,1.3,2.9,2.9c0,1.6-1.3,2.9-2.9,2.9
				c-1.6,0-2.9-1.3-2.9-2.9C7.2-11.7,8.5-13,10.1-13"/>
			<path clip-path="url(#SVGID_2_)" fill="#FAF399" d="M24.5-13c1.6,0,2.9,1.3,2.9,2.9c0,1.6-1.3,2.9-2.9,2.9
				c-1.6,0-2.9-1.3-2.9-2.9C21.6-11.7,22.9-13,24.5-13"/>
			<path clip-path="url(#SVGID_2_)" fill="#FAF399" d="M2.9-34.6c1.6,0,2.9,1.3,2.9,2.9c0,1.6-1.3,2.9-2.9,2.9S0-30.1,0-31.7
				C0-33.3,1.3-34.6,2.9-34.6"/>
			<path clip-path="url(#SVGID_2_)" fill="#FAF399" d="M2.9-20.2c1.6,0,2.9,1.3,2.9,2.9s-1.3,2.9-2.9,2.9S0-15.7,0-17.3
				S1.3-20.2,2.9-20.2"/>
			<path clip-path="url(#SVGID_2_)" fill="#FAF399" d="M31.7-5.8c1.6,0,2.9,1.3,2.9,2.9c0,1.6-1.3,2.9-2.9,2.9s-2.9-1.3-2.9-2.9
				C28.8-4.5,30.1-5.8,31.7-5.8"/>
			<path clip-path="url(#SVGID_2_)" fill="#FAF399" d="M17.3-5.8c1.6,0,2.9,1.3,2.9,2.9c0,1.6-1.3,2.9-2.9,2.9
				c-1.6,0-2.9-1.3-2.9-2.9C14.4-4.5,15.7-5.8,17.3-5.8"/>
			<path clip-path="url(#SVGID_2_)" fill="#FAF399" d="M2.9-5.8c1.6,0,2.9,1.3,2.9,2.9C5.8-1.3,4.5,0,2.9,0S0-1.3,0-2.9
				C0-4.5,1.3-5.8,2.9-5.8"/>
		</g>
	</g>
</pattern>
<pattern  width="72" height="72" patternUnits="userSpaceOnUse" id="Unnamed_Pattern_3" viewBox="72.3 -144.3 72 72" overflow="visible">
	<g>
		<polygon fill="none" points="72.3,-144.3 144.3,-144.3 144.3,-72.3 72.3,-72.3 		"/>
		<g>
			<defs>
				<rect id="SVGID_3_" x="72.3" y="-144.3" width="72" height="72"/>
			</defs>
			<clipPath id="SVGID_4_">
				<use xlink:href="#SVGID_3_"  overflow="visible"/>
			</clipPath>
			<line clip-path="url(#SVGID_4_)" fill="none" stroke="#FAF399" stroke-width="2" x1="78.3" y1="-144" x2="78.3" y2="-216.5"/>
			<line clip-path="url(#SVGID_4_)" fill="none" stroke="#FAF399" stroke-width="2" x1="102.3" y1="-144" x2="102.3" y2="-216.5"/>
			<line clip-path="url(#SVGID_4_)" fill="none" stroke="#FAF399" stroke-width="2" x1="126.3" y1="-144" x2="126.3" y2="-216.5"/>
			<line clip-path="url(#SVGID_4_)" fill="none" stroke="#FAF399" stroke-width="2" x1="90.3" y1="-144" x2="90.3" y2="-216.5"/>
			<line clip-path="url(#SVGID_4_)" fill="none" stroke="#FAF399" stroke-width="2" x1="114.3" y1="-144" x2="114.3" y2="-216.5"/>
			<line clip-path="url(#SVGID_4_)" fill="none" stroke="#FAF399" stroke-width="2" x1="138.3" y1="-144" x2="138.3" y2="-216.5"/>
			<line clip-path="url(#SVGID_4_)" fill="none" stroke="#FAF399" stroke-width="2" x1="144" y1="-138.3" x2="216.5" y2="-138.3"/>
			<line clip-path="url(#SVGID_4_)" fill="none" stroke="#FAF399" stroke-width="2" x1="144" y1="-114.3" x2="216.5" y2="-114.3"/>
			<line clip-path="url(#SVGID_4_)" fill="none" stroke="#FAF399" stroke-width="2" x1="144" y1="-90.3" x2="216.5" y2="-90.3"/>
			<line clip-path="url(#SVGID_4_)" fill="none" stroke="#FAF399" stroke-width="2" x1="144" y1="-126.3" x2="216.5" y2="-126.3"/>
			<line clip-path="url(#SVGID_4_)" fill="none" stroke="#FAF399" stroke-width="2" x1="144" y1="-102.3" x2="216.5" y2="-102.3"/>
			<line clip-path="url(#SVGID_4_)" fill="none" stroke="#FAF399" stroke-width="2" x1="144" y1="-78.3" x2="216.5" y2="-78.3"/>
			<line clip-path="url(#SVGID_4_)" fill="none" stroke="#FAF399" stroke-width="2" x1="144" y1="-138.3" x2="216.5" y2="-138.3"/>
			<line clip-path="url(#SVGID_4_)" fill="none" stroke="#FAF399" stroke-width="2" x1="144" y1="-114.3" x2="216.5" y2="-114.3"/>
			<line clip-path="url(#SVGID_4_)" fill="none" stroke="#FAF399" stroke-width="2" x1="144" y1="-90.3" x2="216.5" y2="-90.3"/>
			<line clip-path="url(#SVGID_4_)" fill="none" stroke="#FAF399" stroke-width="2" x1="144" y1="-126.3" x2="216.5" y2="-126.3"/>
			<line clip-path="url(#SVGID_4_)" fill="none" stroke="#FAF399" stroke-width="2" x1="144" y1="-102.3" x2="216.5" y2="-102.3"/>
			<line clip-path="url(#SVGID_4_)" fill="none" stroke="#FAF399" stroke-width="2" x1="144" y1="-78.3" x2="216.5" y2="-78.3"/>
			<line clip-path="url(#SVGID_4_)" fill="none" stroke="#FAF399" stroke-width="2" x1="72" y1="-138.3" x2="144.5" y2="-138.3"/>
			<line clip-path="url(#SVGID_4_)" fill="none" stroke="#FAF399" stroke-width="2" x1="72" y1="-114.3" x2="144.5" y2="-114.3"/>
			<line clip-path="url(#SVGID_4_)" fill="none" stroke="#FAF399" stroke-width="2" x1="72" y1="-90.3" x2="144.5" y2="-90.3"/>
			<line clip-path="url(#SVGID_4_)" fill="none" stroke="#FAF399" stroke-width="2" x1="72" y1="-126.3" x2="144.5" y2="-126.3"/>
			<line clip-path="url(#SVGID_4_)" fill="none" stroke="#FAF399" stroke-width="2" x1="72" y1="-102.3" x2="144.5" y2="-102.3"/>
			<line clip-path="url(#SVGID_4_)" fill="none" stroke="#FAF399" stroke-width="2" x1="72" y1="-78.3" x2="144.5" y2="-78.3"/>
			<line clip-path="url(#SVGID_4_)" fill="none" stroke="#FAF399" stroke-width="2" x1="78.3" y1="-144" x2="78.3" y2="-216.5"/>
			<line clip-path="url(#SVGID_4_)" fill="none" stroke="#FAF399" stroke-width="2" x1="102.3" y1="-144" x2="102.3" y2="-216.5"/>
			<line clip-path="url(#SVGID_4_)" fill="none" stroke="#FAF399" stroke-width="2" x1="126.3" y1="-144" x2="126.3" y2="-216.5"/>
			<line clip-path="url(#SVGID_4_)" fill="none" stroke="#FAF399" stroke-width="2" x1="90.3" y1="-144" x2="90.3" y2="-216.5"/>
			<line clip-path="url(#SVGID_4_)" fill="none" stroke="#FAF399" stroke-width="2" x1="114.3" y1="-144" x2="114.3" y2="-216.5"/>
			<line clip-path="url(#SVGID_4_)" fill="none" stroke="#FAF399" stroke-width="2" x1="138.3" y1="-144" x2="138.3" y2="-216.5"/>
			<line clip-path="url(#SVGID_4_)" fill="none" stroke="#FAF399" stroke-width="2" x1="144" y1="-138.3" x2="216.5" y2="-138.3"/>
			<line clip-path="url(#SVGID_4_)" fill="none" stroke="#FAF399" stroke-width="2" x1="144" y1="-114.3" x2="216.5" y2="-114.3"/>
			<line clip-path="url(#SVGID_4_)" fill="none" stroke="#FAF399" stroke-width="2" x1="144" y1="-90.3" x2="216.5" y2="-90.3"/>
			<line clip-path="url(#SVGID_4_)" fill="none" stroke="#FAF399" stroke-width="2" x1="144" y1="-126.3" x2="216.5" y2="-126.3"/>
			<line clip-path="url(#SVGID_4_)" fill="none" stroke="#FAF399" stroke-width="2" x1="144" y1="-102.3" x2="216.5" y2="-102.3"/>
			<line clip-path="url(#SVGID_4_)" fill="none" stroke="#FAF399" stroke-width="2" x1="144" y1="-78.3" x2="216.5" y2="-78.3"/>
			<line clip-path="url(#SVGID_4_)" fill="none" stroke="#FAF399" stroke-width="2" x1="78.3" y1="-72" x2="78.3" y2="-144.5"/>
			<line clip-path="url(#SVGID_4_)" fill="none" stroke="#FAF399" stroke-width="2" x1="102.3" y1="-72" x2="102.3" y2="-144.5"/>
			<line clip-path="url(#SVGID_4_)" fill="none" stroke="#FAF399" stroke-width="2" x1="126.3" y1="-72" x2="126.3" y2="-144.5"/>
			<line clip-path="url(#SVGID_4_)" fill="none" stroke="#FAF399" stroke-width="2" x1="72" y1="-138.3" x2="144.5" y2="-138.3"/>
			<line clip-path="url(#SVGID_4_)" fill="none" stroke="#FAF399" stroke-width="2" x1="72" y1="-114.3" x2="144.5" y2="-114.3"/>
			<line clip-path="url(#SVGID_4_)" fill="none" stroke="#FAF399" stroke-width="2" x1="72" y1="-90.3" x2="144.5" y2="-90.3"/>
			<line clip-path="url(#SVGID_4_)" fill="none" stroke="#FAF399" stroke-width="2" x1="72" y1="-126.3" x2="144.5" y2="-126.3"/>
			<line clip-path="url(#SVGID_4_)" fill="none" stroke="#FAF399" stroke-width="2" x1="72" y1="-102.3" x2="144.5" y2="-102.3"/>
			<line clip-path="url(#SVGID_4_)" fill="none" stroke="#FAF399" stroke-width="2" x1="72" y1="-78.3" x2="144.5" y2="-78.3"/>
			<line clip-path="url(#SVGID_4_)" fill="none" stroke="#FAF399" stroke-width="2" x1="90.3" y1="-72" x2="90.3" y2="-144.5"/>
			<line clip-path="url(#SVGID_4_)" fill="none" stroke="#FAF399" stroke-width="2" x1="114.3" y1="-72" x2="114.3" y2="-144.5"/>
			<line clip-path="url(#SVGID_4_)" fill="none" stroke="#FAF399" stroke-width="2" x1="138.3" y1="-72" x2="138.3" y2="-144.5"/>
			<line clip-path="url(#SVGID_4_)" fill="none" stroke="#FAF399" stroke-width="2" x1="0" y1="-138.3" x2="72.5" y2="-138.3"/>
			<line clip-path="url(#SVGID_4_)" fill="none" stroke="#FAF399" stroke-width="2" x1="0" y1="-114.3" x2="72.5" y2="-114.3"/>
			<line clip-path="url(#SVGID_4_)" fill="none" stroke="#FAF399" stroke-width="2" x1="0" y1="-90.3" x2="72.5" y2="-90.3"/>
			<line clip-path="url(#SVGID_4_)" fill="none" stroke="#FAF399" stroke-width="2" x1="0" y1="-126.3" x2="72.5" y2="-126.3"/>
			<line clip-path="url(#SVGID_4_)" fill="none" stroke="#FAF399" stroke-width="2" x1="0" y1="-102.3" x2="72.5" y2="-102.3"/>
			<line clip-path="url(#SVGID_4_)" fill="none" stroke="#FAF399" stroke-width="2" x1="0" y1="-78.3" x2="72.5" y2="-78.3"/>
			<g clip-path="url(#SVGID_4_)">
				<defs>
					<rect id="SVGID_5_" x="72.3" y="-144.3" width="72" height="72"/>
				</defs>
				<clipPath id="SVGID_6_">
					<use xlink:href="#SVGID_5_"  overflow="visible"/>
				</clipPath>
				<line clip-path="url(#SVGID_6_)" fill="none" stroke="#FAF399" stroke-width="2" x1="78.3" y1="0" x2="78.3" y2="-72.5"/>
				<line clip-path="url(#SVGID_6_)" fill="none" stroke="#FAF399" stroke-width="2" x1="102.3" y1="0" x2="102.3" y2="-72.5"/>
				<line clip-path="url(#SVGID_6_)" fill="none" stroke="#FAF399" stroke-width="2" x1="126.3" y1="0" x2="126.3" y2="-72.5"/>
				<line clip-path="url(#SVGID_6_)" fill="none" stroke="#FAF399" stroke-width="2" x1="90.3" y1="0" x2="90.3" y2="-72.5"/>
				<line clip-path="url(#SVGID_6_)" fill="none" stroke="#FAF399" stroke-width="2" x1="114.3" y1="0" x2="114.3" y2="-72.5"/>
				<line clip-path="url(#SVGID_6_)" fill="none" stroke="#FAF399" stroke-width="2" x1="138.3" y1="0" x2="138.3" y2="-72.5"/>
			</g>
			<line clip-path="url(#SVGID_4_)" fill="none" stroke="#FAF399" stroke-width="2" x1="72" y1="-138.3" x2="144.5" y2="-138.3"/>
			<line clip-path="url(#SVGID_4_)" fill="none" stroke="#FAF399" stroke-width="2" x1="72" y1="-114.3" x2="144.5" y2="-114.3"/>
			<line clip-path="url(#SVGID_4_)" fill="none" stroke="#FAF399" stroke-width="2" x1="72" y1="-90.3" x2="144.5" y2="-90.3"/>
			<line clip-path="url(#SVGID_4_)" fill="none" stroke="#FAF399" stroke-width="2" x1="72" y1="-126.3" x2="144.5" y2="-126.3"/>
			<line clip-path="url(#SVGID_4_)" fill="none" stroke="#FAF399" stroke-width="2" x1="72" y1="-102.3" x2="144.5" y2="-102.3"/>
			<line clip-path="url(#SVGID_4_)" fill="none" stroke="#FAF399" stroke-width="2" x1="72" y1="-78.3" x2="144.5" y2="-78.3"/>
			<line clip-path="url(#SVGID_4_)" fill="none" stroke="#FAF399" stroke-width="2" x1="0" y1="-138.3" x2="72.5" y2="-138.3"/>
			<line clip-path="url(#SVGID_4_)" fill="none" stroke="#FAF399" stroke-width="2" x1="0" y1="-114.3" x2="72.5" y2="-114.3"/>
			<line clip-path="url(#SVGID_4_)" fill="none" stroke="#FAF399" stroke-width="2" x1="0" y1="-90.3" x2="72.5" y2="-90.3"/>
			<line clip-path="url(#SVGID_4_)" fill="none" stroke="#FAF399" stroke-width="2" x1="0" y1="-126.3" x2="72.5" y2="-126.3"/>
			<line clip-path="url(#SVGID_4_)" fill="none" stroke="#FAF399" stroke-width="2" x1="0" y1="-102.3" x2="72.5" y2="-102.3"/>
			<line clip-path="url(#SVGID_4_)" fill="none" stroke="#FAF399" stroke-width="2" x1="0" y1="-78.3" x2="72.5" y2="-78.3"/>
			<line clip-path="url(#SVGID_4_)" fill="none" stroke="#FAF399" stroke-width="2" x1="0" y1="-138.3" x2="72.5" y2="-138.3"/>
			<line clip-path="url(#SVGID_4_)" fill="none" stroke="#FAF399" stroke-width="2" x1="0" y1="-114.3" x2="72.5" y2="-114.3"/>
			<line clip-path="url(#SVGID_4_)" fill="none" stroke="#FAF399" stroke-width="2" x1="0" y1="-90.3" x2="72.5" y2="-90.3"/>
			<line clip-path="url(#SVGID_4_)" fill="none" stroke="#FAF399" stroke-width="2" x1="0" y1="-126.3" x2="72.5" y2="-126.3"/>
			<line clip-path="url(#SVGID_4_)" fill="none" stroke="#FAF399" stroke-width="2" x1="0" y1="-102.3" x2="72.5" y2="-102.3"/>
			<line clip-path="url(#SVGID_4_)" fill="none" stroke="#FAF399" stroke-width="2" x1="0" y1="-78.3" x2="72.5" y2="-78.3"/>
			<line clip-path="url(#SVGID_4_)" fill="none" stroke="#FAF399" stroke-width="2" x1="78.3" y1="-72" x2="78.3" y2="-144.5"/>
			<line clip-path="url(#SVGID_4_)" fill="none" stroke="#FAF399" stroke-width="2" x1="102.3" y1="-72" x2="102.3" y2="-144.5"/>
			<line clip-path="url(#SVGID_4_)" fill="none" stroke="#FAF399" stroke-width="2" x1="126.3" y1="-72" x2="126.3" y2="-144.5"/>
			<line clip-path="url(#SVGID_4_)" fill="none" stroke="#FAF399" stroke-width="2" x1="90.3" y1="-72" x2="90.3" y2="-144.5"/>
			<line clip-path="url(#SVGID_4_)" fill="none" stroke="#FAF399" stroke-width="2" x1="114.3" y1="-72" x2="114.3" y2="-144.5"/>
			<line clip-path="url(#SVGID_4_)" fill="none" stroke="#FAF399" stroke-width="2" x1="138.3" y1="-72" x2="138.3" y2="-144.5"/>
			<line clip-path="url(#SVGID_4_)" fill="none" stroke="#FAF399" stroke-width="2" x1="78.3" y1="0" x2="78.3" y2="-72.5"/>
			<line clip-path="url(#SVGID_4_)" fill="none" stroke="#FAF399" stroke-width="2" x1="102.3" y1="0" x2="102.3" y2="-72.5"/>
			<line clip-path="url(#SVGID_4_)" fill="none" stroke="#FAF399" stroke-width="2" x1="126.3" y1="0" x2="126.3" y2="-72.5"/>
			<line clip-path="url(#SVGID_4_)" fill="none" stroke="#FAF399" stroke-width="2" x1="90.3" y1="0" x2="90.3" y2="-72.5"/>
			<line clip-path="url(#SVGID_4_)" fill="none" stroke="#FAF399" stroke-width="2" x1="114.3" y1="0" x2="114.3" y2="-72.5"/>
			<line clip-path="url(#SVGID_4_)" fill="none" stroke="#FAF399" stroke-width="2" x1="138.3" y1="0" x2="138.3" y2="-72.5"/>
			<line clip-path="url(#SVGID_4_)" fill="none" stroke="#FAF399" stroke-width="2" x1="78.3" y1="0" x2="78.3" y2="-72.5"/>
			<line clip-path="url(#SVGID_4_)" fill="none" stroke="#FAF399" stroke-width="2" x1="102.3" y1="0" x2="102.3" y2="-72.5"/>
			<line clip-path="url(#SVGID_4_)" fill="none" stroke="#FAF399" stroke-width="2" x1="126.3" y1="0" x2="126.3" y2="-72.5"/>
			<line clip-path="url(#SVGID_4_)" fill="none" stroke="#FAF399" stroke-width="2" x1="90.3" y1="0" x2="90.3" y2="-72.5"/>
			<line clip-path="url(#SVGID_4_)" fill="none" stroke="#FAF399" stroke-width="2" x1="114.3" y1="0" x2="114.3" y2="-72.5"/>
			<line clip-path="url(#SVGID_4_)" fill="none" stroke="#FAF399" stroke-width="2" x1="138.3" y1="0" x2="138.3" y2="-72.5"/>
		</g>
	</g>
</pattern>
<pattern  id="SVGID_7_" xlink:href="#Unnamed_Pattern_3" patternTransform="matrix(0.4024 2.750705e-003 2.750705e-003 -0.4024 -2374.4573 -3774.6467)">
</pattern>
<rect x="-4.9" y="-4.6" display="none" fill="url(#SVGID_7_)" width="608.3" height="673.4"/>
<rect x="-4.9" display="none" fill="#308E75" width="604.9" height="793"/>
<g>
	<defs>
		<rect id="SVGID_8_" x="55.3" y="-23.3" width="602.1" height="338.7"/>
	</defs>
	<clipPath id="SVGID_9_">
		<use xlink:href="#SVGID_8_"  overflow="visible"/>
	</clipPath>
	<g clip-path="url(#SVGID_9_)">
		<defs>
			<path id="SVGID_10_" d="M1007.6,27.8c-47.4,0-76.6,26-76.6,72.4h37.3c0-27.6,15.9-39.9,37.7-39.9c17.9,0,30.2,12,30.2,31.2
				c0,16.2-6.2,26.9-20.5,37.3l-14.9,11c-18.8,14-20.8,25.3-20.8,44.8v3.6h35.4v-4.5c0-10.4,2.3-15.9,14-25l11.7-9.1
				c19.8-15.6,33.8-31.5,33.8-59.4C1074.8,53.5,1050.5,27.8,1007.6,27.8"/>
		</defs>
		<clipPath id="SVGID_11_">
			<use xlink:href="#SVGID_10_"  overflow="visible"/>
		</clipPath>
		<g clip-path="url(#SVGID_11_)">
			<defs>
				
					<rect id="SVGID_12_" x="608.6" y="-452.1" transform="matrix(-0.9089 -0.4169 0.4169 -0.9089 2283.2393 471.2988)" width="1169" height="876.8"/>
			</defs>
			<clipPath id="SVGID_13_">
				<use xlink:href="#SVGID_12_"  overflow="visible"/>
			</clipPath>
			<g clip-path="url(#SVGID_13_)">
				<defs>
					
						<rect id="SVGID_14_" x="608.6" y="-452.1" transform="matrix(-0.9089 -0.4169 0.4169 -0.9089 2283.2393 471.2988)" width="1169" height="876.8"/>
				</defs>
				<clipPath id="SVGID_15_">
					<use xlink:href="#SVGID_14_"  overflow="visible"/>
				</clipPath>
				<g clip-path="url(#SVGID_15_)">
					<defs>
						
							<rect id="SVGID_16_" x="754.7" y="-598.2" transform="matrix(-0.4169 0.9089 -0.9089 -0.4169 1678.0603 -1103.8314)" width="876.8" height="1169"/>
					</defs>
					<clipPath id="SVGID_17_">
						<use xlink:href="#SVGID_16_"  overflow="visible"/>
					</clipPath>
					<g transform="matrix(1 0 0 1 0 1.525879e-005)" clip-path="url(#SVGID_17_)">
						
							<image overflow="visible" width="3150" height="4200" xlink:href="8412783.png"  transform="matrix(0.116 -0.253 0.253 0.116 479.0142 141.1068)">
						</image>
					</g>
				</g>
			</g>
		</g>
	</g>
</g>
<g>
	<defs>
		<rect id="SVGID_18_" x="318" y="2.7" width="280.5" height="370.8"/>
	</defs>
	<clipPath id="SVGID_19_">
		<use xlink:href="#SVGID_18_"  overflow="visible"/>
	</clipPath>
	<pattern  id="SVGID_20_" xlink:href="#Unnamed_Pattern_2" patternTransform="matrix(1.0679 0 0 -1.0679 2767.0732 1628.6975)">
	</pattern>
	<path clip-path="url(#SVGID_19_)" fill="url(#SVGID_20_)" d="M517.9,222.5c14.2,31.3,0.3,69.5-31.8,84.1
		c-31.7,14.4-69.7-0.1-83.9-31.4c-7.3-16.1-7-34.1-0.6-49.8l-63.4,28.9c0.5,15.2,4,30.5,10.7,45.2c27.5,60.3,99.2,87.2,160.8,59.1
		c62.1-28.3,88.9-100,61.4-160.3c-6.7-14.7-16-27.4-27.1-37.7l-63.5,28.9C496.7,194.9,510.6,206.5,517.9,222.5"/>
	<path clip-path="url(#SVGID_19_)" fill="#FAF399" d="M448,20.4C478-1,519.2-3.2,552.9,17.9c34,21.3,50.2,59.3,44,95.6l-45.9-28.7
		c-3.1-11.7-10.5-22.4-21.6-29.4c-11-6.9-23.7-8.7-35.6-6.4L448,20.4z"/>
</g>
<g>
	<defs>
		<path id="SVGID_21_" d="M502.1,3.2c-19.3,0-38.3,6-54.1,17.3l45.9,28.7c11.9-2.3,24.6-0.5,35.6,6.4c11.1,7,18.5,17.7,21.6,29.4
			l45.9,28.7c6.1-36.3-10-74.4-44-95.6C537,8,519.4,3.2,502.1,3.2C502.1,3.2,502.1,3.2,502.1,3.2"/>
	</defs>
	<clipPath id="SVGID_22_">
		<use xlink:href="#SVGID_21_"  overflow="visible"/>
	</clipPath>
	<g clip-path="url(#SVGID_22_)">
		<defs>
			
				<rect id="SVGID_23_" x="229.5" y="-586.6" transform="matrix(-0.4169 0.9089 -0.9089 -0.4169 944.4394 -610.107)" width="876.8" height="1169"/>
		</defs>
		<clipPath id="SVGID_24_">
			<use xlink:href="#SVGID_23_"  overflow="visible"/>
		</clipPath>
		<g transform="matrix(1 0 0 1 -3.814697e-006 0)" clip-path="url(#SVGID_24_)">
			
				<image overflow="visible" width="3150" height="4200" xlink:href="841278D.png"  transform="matrix(0.116 -0.253 0.253 0.116 -46.1588 152.6596)">
			</image>
		</g>
	</g>
</g>
<rect x="55.3" y="-23.3" fill="none" width="602.1" height="338.7"/>
</svg>
