<?xml version="1.0" encoding="utf-8"?>
<!-- Generator: Adobe Illustrator 18.0.0, SVG Export Plug-In . SVG Version: 6.00 Build 0)  -->
<!DOCTYPE svg PUBLIC "-//W3C//DTD SVG 1.1//EN" "http://www.w3.org/Graphics/SVG/1.1/DTD/svg11.dtd">
<svg version="1.1" id="Layer_1" xmlns="http://www.w3.org/2000/svg" xmlns:xlink="http://www.w3.org/1999/xlink" x="0px" y="0px"
	 viewBox="0 0 235.5 201.5" enable-background="new 0 0 235.5 201.5" xml:space="preserve">
<g display="none">
	<path display="inline" fill="#608243" d="M115.6,124.8c-13.6,0-25.3,8.2-30.4,20h19.4c3-2.5,6.8-4,10.9-4c4.2,0,8,1.5,10.9,4H146
		C140.9,133,129.2,124.8,115.6,124.8"/>
	<path display="inline" fill="#608243" d="M31.1,121.1c13.3,0,24.7-8,29.6-19.5h-19c-2.9,2.4-6.6,3.9-10.7,3.9
		c-4.1,0-7.8-1.5-10.7-3.9h-19C6.4,113.1,17.8,121.1,31.1,121.1"/>
	<path display="inline" fill="none" stroke="#608243" stroke-width="12.0797" stroke-miterlimit="10" d="M30.5,95
		c0-48,38.9-86.9,86.9-86.9c24,0,45.7,9.7,61.4,25.4"/>
	<path display="inline" fill="#608243" d="M204.9,80.3c-13.3,0-24.7,8-29.6,19.5h19c2.9-2.4,6.6-3.9,10.7-3.9
		c4.1,0,7.8,1.5,10.7,3.9h19C229.5,88.3,218.1,80.3,204.9,80.3"/>
	
		<path display="inline" fill="none" stroke="#608243" stroke-width="12.0797" stroke-miterlimit="10" stroke-dasharray="12.0797,12.0797" d="
		M204.2,106.4c0,48-38.9,86.9-86.9,86.9c-24,0-45.7-9.7-61.4-25.4"/>
	<path display="inline" fill="#608243" d="M116.4,122c18.5,0,33.2-14.7,33.2-32.7c0-4.4-0.9-8.6-2.5-12.4h-19
		c3.4,3.1,5.6,7.6,5.6,12.4c0,9.3-7.7,17.2-17.3,17.2c-9.4,0-17.2-7.9-17.2-17.2c0-4.8,2.1-9.3,5.5-12.4H85.8
		c-1.6,3.8-2.5,8-2.5,12.4C83.3,107.3,98,122,116.4,122"/>
	<g display="inline" opacity="0.5">
		<g>
			<defs>
				<rect id="SVGID_1_" x="85.8" y="56.8" width="61.3" height="20.1"/>
			</defs>
			<clipPath id="SVGID_2_">
				<use xlink:href="#SVGID_1_"  overflow="visible"/>
			</clipPath>
			<path clip-path="url(#SVGID_2_)" fill="#608243" d="M116.4,56.8c-13.9,0-25.7,8.2-30.6,20.1h18.9c3.1-2.8,7.2-4.6,11.6-4.6
				c4.5,0,8.7,1.8,11.8,4.6h19C142.2,65.1,130.4,56.8,116.4,56.8"/>
		</g>
	</g>
</g>
<g>
	<path fill="#5D7EBD" d="M123.3,62.2c0,14.9-12.1,26.9-26.9,26.9c-14.9,0-26.9-12.1-26.9-26.9c0-14.9,12.1-26.9,26.9-26.9
		C111.2,35.2,123.3,47.3,123.3,62.2"/>
	<path fill="#5D7EBD" d="M176,50.5c0,14.9-12.1,26.9-26.9,26.9c-14.9,0-26.9-12.1-26.9-26.9c0-14.9,12.1-26.9,26.9-26.9
		C163.9,23.5,176,35.6,176,50.5"/>
	<path fill="#5D7EBD" d="M190.2,131.2c0,7.8-6.4,14.2-14.2,14.2s-14.2-6.4-14.2-14.2c0-7.8,6.4-14.2,14.2-14.2
		S190.2,123.3,190.2,131.2"/>
	<path fill="#5D7EBD" d="M128.4,150.5c0,7.8-6.4,14.2-14.2,14.2s-14.2-6.4-14.2-14.2c0-7.8,6.4-14.2,14.2-14.2
		S128.4,142.7,128.4,150.5"/>
	<path fill="#5D7EBD" d="M88.3,90.7c20.2,20.2,20.2,52.9,0,73.1c-20.2,20.2-52.9,20.2-73.1,0C-5,143.6-5,110.9,15.2,90.7
		C35.4,70.5,68.1,70.5,88.3,90.7"/>
	<path fill="#5D7EBD" d="M235.5,87.2c0,19.7-16,35.7-35.7,35.7s-35.7-16-35.7-35.7s16-35.7,35.7-35.7S235.5,67.5,235.5,87.2"/>
	<path fill="#5D7EBD" d="M134.5,141.2c18.4,0,33.1-14.6,33.1-32.5c0-4.4-0.9-8.6-2.5-12.4h-18.9c3.4,3.1,5.5,7.6,5.5,12.4
		c0,9.3-7.7,17.1-17.2,17.1c-9.4,0-17.1-7.8-17.1-17.1c0-4.8,2.1-9.3,5.5-12.4H104c-1.6,3.8-2.5,8-2.5,12.4
		C101.5,126.6,116.2,141.2,134.5,141.2"/>
	<g opacity="0.5">
		<g>
			<defs>
				<rect id="SVGID_3_" x="104" y="76.3" width="61.1" height="20"/>
			</defs>
			<clipPath id="SVGID_4_">
				<use xlink:href="#SVGID_3_"  overflow="visible"/>
			</clipPath>
			<path clip-path="url(#SVGID_4_)" fill="#5D7EBD" d="M134.5,76.3c-13.8,0-25.6,8.2-30.5,20h18.9c3.1-2.8,7.1-4.6,11.6-4.6
				c4.5,0,8.6,1.8,11.7,4.6h18.9C160.1,84.5,148.4,76.3,134.5,76.3"/>
		</g>
	</g>
</g>
<g display="none">
	<g display="inline" opacity="0.5">
		<g>
			<defs>
				<rect id="SVGID_5_" x="36" y="130.4" width="159" height="52.1"/>
			</defs>
			<clipPath id="SVGID_6_">
				<use xlink:href="#SVGID_5_"  overflow="visible"/>
			</clipPath>
			<path clip-path="url(#SVGID_6_)" fill="#0C6363" d="M115.7,182.5c36,0,66.6-21.4,79.3-52.1h-49.1c-8,7.4-18.6,12-30.2,12
				c-11.8,0-22.5-4.6-30.5-12H36C48.8,161.1,79.4,182.5,115.7,182.5"/>
		</g>
	</g>
	<path display="inline" fill="#0C6363" d="M168.4,64.2c13-2.4,22.8-12.4,25.6-24.6l-18.6,3.5c-2.4,2.9-5.8,5-9.8,5.7
		c-4,0.7-7.9,0-11.2-1.8l-18.6,3.5C142.7,60.8,155.4,66.6,168.4,64.2"/>
	<path display="inline" fill="#0C6363" d="M68.1,85.7c18.5,0,33.2-14.7,33.2-32.7c0-4.4-0.9-8.6-2.5-12.4h-19
		c3.4,3.1,5.6,7.6,5.6,12.4c0,9.3-7.7,17.2-17.3,17.2c-9.4,0-17.2-7.9-17.2-17.2c0-4.8,2.1-9.3,5.5-12.4H37.5
		c-1.6,3.8-2.5,8-2.5,12.4C35.1,71,49.7,85.7,68.1,85.7"/>
	<g display="inline" opacity="0.5">
		<g>
			<defs>
				<rect id="SVGID_7_" x="37.5" y="20.5" width="61.3" height="20.1"/>
			</defs>
			<clipPath id="SVGID_8_">
				<use xlink:href="#SVGID_7_"  overflow="visible"/>
			</clipPath>
			<path clip-path="url(#SVGID_8_)" fill="#0C6363" d="M68.1,20.5c-13.9,0-25.7,8.3-30.6,20.1h18.9c3.1-2.8,7.2-4.6,11.6-4.6
				c4.5,0,8.7,1.8,11.8,4.6h19C93.9,28.7,82.1,20.5,68.1,20.5"/>
		</g>
	</g>
</g>
</svg>
