<?xml version="1.0" encoding="utf-8"?>
<!-- Generator: Adobe Illustrator 18.0.0, SVG Export Plug-In . SVG Version: 6.00 Build 0)  -->
<!DOCTYPE svg PUBLIC "-//W3C//DTD SVG 1.1//EN" "http://www.w3.org/Graphics/SVG/1.1/DTD/svg11.dtd">
<svg version="1.1" id="Capa_1" xmlns="http://www.w3.org/2000/svg" xmlns:xlink="http://www.w3.org/1999/xlink" x="0px" y="0px"
	 viewBox="0 0 800 600" enable-background="new 0 0 800 600" xml:space="preserve">
<g>
	<g>
		<rect x="100" y="187.5" fill="#FFFFFF" width="134.2" height="412.5"/>
	</g>
</g>
<g>
	<g>
		<path fill="#FFFFFF" d="M599.7,192.3c-1.4-0.5-2.8-0.9-4.3-1.3c-1.8-0.4-3.6-0.8-5.4-1.1c-7.1-1.4-14.9-2.4-24.1-2.4
			c-78.2,0-127.8,56.9-144.2,78.9v-78.9H287.5V600h134.2V375c0,0,101.4-141.2,144.2-37.5c0,92.6,0,262.5,0,262.5H700V321.6
			C700,259.3,657.3,207.4,599.7,192.3z"/>
	</g>
</g>
<g>
	<g>
		<circle fill="#FFFFFF" cx="165.6" cy="65.6" r="65.6"/>
	</g>
</g>
</svg>
