<svg xmlns="http://www.w3.org/2000/svg" viewBox="0 0 29.59 29.13"><defs><style>.cls-1,.cls-2{fill:#ffff96;}.cls-1{opacity:0.6;}</style></defs><title>Asset 1</title><g id="Layer_2" data-name="Layer 2"><g id="FG"><path class="cls-1" d="M9.57,9a7.64,7.64,0,0,1,5.2-2.06A7.73,7.73,0,0,1,20,9l0,0H28.5V9A14.74,14.74,0,0,0,14.77,0,14.71,14.71,0,0,0,1.1,9a0,0,0,0,1,0,0H9.53Z"/><path class="cls-2" d="M29,10.48H21.28a7.44,7.44,0,0,1,1.22,4,7.71,7.71,0,0,1-15.41,0,7.44,7.44,0,0,1,1.22-4H.58A14.58,14.58,0,0,0,14.77,29.13a14.68,14.68,0,0,0,14.82-14.6A14.26,14.26,0,0,0,29,10.48Z"/></g></g></svg>