<svg xmlns="http://www.w3.org/2000/svg" xmlns:xlink="http://www.w3.org/1999/xlink" width="639.615" height="201.201" viewBox="0 0 639.615 201.201"><defs><clipPath id="a"><rect width="639.614" height="201.201" transform="translate(3233.675 289.544)" fill="none"/></clipPath><clipPath id="b"><rect width="639.75" height="201.201" transform="translate(3233.607 289.544)" fill="none"/></clipPath><clipPath id="c"><path d="M3388.853,388.016H3432A39.01,39.01,0,0,1,3458.52,377.5a39.451,39.451,0,0,1,26.778,10.514h43.186c-11.23-26.98-38.115-45.769-69.964-45.769-31.623,0-58.451,18.789-69.667,45.769" fill="none"/></clipPath></defs><g transform="translate(-3233.675 -289.544)"><g clip-path="url(#a)"><g clip-path="url(#b)"><path d="M3328.989,486.86V410.969c0-27.49-14.64-33.466-29.281-33.466s-29.281,5.677-29.281,32.866V486.86h-36.752V344.935h36.752v10.458c8.067-5.976,17.926-13.146,37.348-13.146,31.075,0,57.965,18.224,57.965,62.745V486.86Z" fill="#ff7856"/><path d="M3554.279,486.86V289.544h36.75v65.848c11.355-9.262,24.8-13.145,39.442-13.145,41.83,0,75.294,32.866,75.294,74.1,0,40.936-33.464,74.4-75.294,74.4-14.64,0-28.087-3.884-39.442-13.147v9.263Zm36.75-68.722c.9,20.318,18.228,37.348,39.442,37.348a39.47,39.47,0,0,0,39.14-39.142c0-20.913-17.628-38.84-39.14-38.84-21.214,0-38.545,17.33-39.442,37.348Z" fill="#ff7856"/><path d="M3836.539,486.86V477.6c-11.355,9.262-24.8,13.146-39.442,13.146-41.83,0-75.294-33.464-75.294-74.4,0-41.232,33.464-74.1,75.294-74.1,14.343,0,27.788,3.882,39.442,13.146V344.935h36.75V486.86ZM3797.1,377.5c-21.512,0-39.14,17.928-39.14,38.842a39.471,39.471,0,0,0,39.14,39.143c21.813,0,39.442-17.929,39.442-39.143,0-20.914-17.629-38.842-39.442-38.842" fill="#ff7856"/><path d="M3458.589,490.745c42.129,0,75.594-33.464,75.594-74.4a73.49,73.49,0,0,0-5.632-28.328h-43.185a38.642,38.642,0,0,1,12.663,28.328c0,21.215-17.628,39.143-39.44,39.143a39.472,39.472,0,0,1-39.142-39.143,38.767,38.767,0,0,1,12.62-28.328H3388.92a73.6,73.6,0,0,0-5.626,28.328c0,40.937,33.465,74.4,75.3,74.4" fill="#ff7856"/></g><g clip-path="url(#c)"><line y1="15.076" transform="translate(3420.978 327.44)" stroke-width="3.576" stroke="#ff7856" stroke-linecap="round" stroke-linejoin="round" fill="none"/><line y1="15.076" transform="translate(3428.516 327.44)" stroke-width="3.576" stroke="#ff7856" stroke-linecap="round" stroke-linejoin="round" fill="none"/><line y1="15.076" transform="translate(3436.054 327.44)" stroke-width="3.576" stroke="#ff7856" stroke-linecap="round" stroke-linejoin="round" fill="none"/><line y1="15.076" transform="translate(3443.592 327.44)" stroke-width="3.576" stroke="#ff7856" stroke-linecap="round" stroke-linejoin="round" fill="none"/><line y1="15.076" transform="translate(3451.13 327.44)" stroke-width="3.576" stroke="#ff7856" stroke-linecap="round" stroke-linejoin="round" fill="none"/><line y1="15.076" transform="translate(3458.668 327.44)" stroke-width="3.576" stroke="#ff7856" stroke-linecap="round" stroke-linejoin="round" fill="none"/><line y1="15.076" transform="translate(3466.206 327.44)" stroke-width="3.576" stroke="#ff7856" stroke-linecap="round" stroke-linejoin="round" fill="none"/><line y1="15.076" transform="translate(3473.744 327.44)" stroke-width="3.576" stroke="#ff7856" stroke-linecap="round" stroke-linejoin="round" fill="none"/><line y1="15.076" transform="translate(3481.282 327.44)" stroke-width="3.576" stroke="#ff7856" stroke-linecap="round" stroke-linejoin="round" fill="none"/><line y1="15.076" transform="translate(3488.82 327.44)" stroke-width="3.576" stroke="#ff7856" stroke-linecap="round" stroke-linejoin="round" fill="none"/><line y1="15.076" transform="translate(3420.978 334.979)" stroke-width="3.576" stroke="#ff7856" stroke-linecap="round" stroke-linejoin="round" fill="none"/><line y1="15.076" transform="translate(3428.516 334.979)" stroke-width="3.576" stroke="#ff7856" stroke-linecap="round" stroke-linejoin="round" fill="none"/><line y1="15.076" transform="translate(3436.054 334.979)" stroke-width="3.576" stroke="#ff7856" stroke-linecap="round" stroke-linejoin="round" fill="none"/><line y1="15.076" transform="translate(3443.592 334.979)" stroke-width="3.576" stroke="#ff7856" stroke-linecap="round" stroke-linejoin="round" fill="none"/><line y1="15.076" transform="translate(3451.13 334.979)" stroke-width="3.576" stroke="#ff7856" stroke-linecap="round" stroke-linejoin="round" fill="none"/><line y1="15.076" transform="translate(3458.668 334.979)" stroke-width="3.576" stroke="#ff7856" stroke-linecap="round" stroke-linejoin="round" fill="none"/><line y1="15.076" transform="translate(3466.206 334.979)" stroke-width="3.576" stroke="#ff7856" stroke-linecap="round" stroke-linejoin="round" fill="none"/><line y1="15.076" transform="translate(3473.744 334.979)" stroke-width="3.576" stroke="#ff7856" stroke-linecap="round" stroke-linejoin="round" fill="none"/><line y1="15.076" transform="translate(3481.282 334.979)" stroke-width="3.576" stroke="#ff7856" stroke-linecap="round" stroke-linejoin="round" fill="none"/><line y1="15.076" transform="translate(3488.82 334.979)" stroke-width="3.576" stroke="#ff7856" stroke-linecap="round" stroke-linejoin="round" fill="none"/><line y1="15.076" transform="translate(3413.44 342.516)" stroke-width="3.576" stroke="#ff7856" stroke-linecap="round" stroke-linejoin="round" fill="none"/><line y1="15.076" transform="translate(3420.978 342.516)" stroke-width="3.576" stroke="#ff7856" stroke-linecap="round" stroke-linejoin="round" fill="none"/><line y1="15.076" transform="translate(3428.516 342.516)" stroke-width="3.576" stroke="#ff7856" stroke-linecap="round" stroke-linejoin="round" fill="none"/><line y1="15.076" transform="translate(3436.054 342.516)" stroke-width="3.576" stroke="#ff7856" stroke-linecap="round" stroke-linejoin="round" fill="none"/><line y1="15.076" transform="translate(3443.592 342.516)" stroke-width="3.576" stroke="#ff7856" stroke-linecap="round" stroke-linejoin="round" fill="none"/><line y1="15.076" transform="translate(3451.13 342.516)" stroke-width="3.576" stroke="#ff7856" stroke-linecap="round" stroke-linejoin="round" fill="none"/><line y1="15.076" transform="translate(3458.668 342.516)" stroke-width="3.576" stroke="#ff7856" stroke-linecap="round" stroke-linejoin="round" fill="none"/><line y1="15.076" transform="translate(3466.206 342.516)" stroke-width="3.576" stroke="#ff7856" stroke-linecap="round" stroke-linejoin="round" fill="none"/><line y1="15.076" transform="translate(3473.744 342.516)" stroke-width="3.576" stroke="#ff7856" stroke-linecap="round" stroke-linejoin="round" fill="none"/><line y1="15.076" transform="translate(3481.282 342.516)" stroke-width="3.576" stroke="#ff7856" stroke-linecap="round" stroke-linejoin="round" fill="none"/><line y1="15.076" transform="translate(3488.82 342.516)" stroke-width="3.576" stroke="#ff7856" stroke-linecap="round" stroke-linejoin="round" fill="none"/><line y1="15.076" transform="translate(3496.358 342.516)" stroke-width="3.576" stroke="#ff7856" stroke-linecap="round" stroke-linejoin="round" fill="none"/><line y1="15.076" transform="translate(3503.896 342.516)" stroke-width="3.576" stroke="#ff7856" stroke-linecap="round" stroke-linejoin="round" fill="none"/><line y1="15.076" transform="translate(3405.901 350.055)" stroke-width="3.576" stroke="#ff7856" stroke-linecap="round" stroke-linejoin="round" fill="none"/><line y1="15.076" transform="translate(3413.44 350.055)" stroke-width="3.576" stroke="#ff7856" stroke-linecap="round" stroke-linejoin="round" fill="none"/><line y1="15.076" transform="translate(3420.978 350.055)" stroke-width="3.576" stroke="#ff7856" stroke-linecap="round" stroke-linejoin="round" fill="none"/><line y1="15.076" transform="translate(3428.516 350.055)" stroke-width="3.576" stroke="#ff7856" stroke-linecap="round" stroke-linejoin="round" fill="none"/><line y1="15.076" transform="translate(3436.054 350.055)" stroke-width="3.576" stroke="#ff7856" stroke-linecap="round" stroke-linejoin="round" fill="none"/><line y1="15.076" transform="translate(3443.592 350.055)" stroke-width="3.576" stroke="#ff7856" stroke-linecap="round" stroke-linejoin="round" fill="none"/><line y1="15.076" transform="translate(3451.13 350.055)" stroke-width="3.576" stroke="#ff7856" stroke-linecap="round" stroke-linejoin="round" fill="none"/><line y1="15.076" transform="translate(3458.668 350.055)" stroke-width="3.576" stroke="#ff7856" stroke-linecap="round" stroke-linejoin="round" fill="none"/><line y1="15.076" transform="translate(3466.206 350.055)" stroke-width="3.576" stroke="#ff7856" stroke-linecap="round" stroke-linejoin="round" fill="none"/><line y1="15.076" transform="translate(3473.744 350.055)" stroke-width="3.576" stroke="#ff7856" stroke-linecap="round" stroke-linejoin="round" fill="none"/><line y1="15.076" transform="translate(3481.282 350.055)" stroke-width="3.576" stroke="#ff7856" stroke-linecap="round" stroke-linejoin="round" fill="none"/><line y1="15.076" transform="translate(3488.82 350.055)" stroke-width="3.576" stroke="#ff7856" stroke-linecap="round" stroke-linejoin="round" fill="none"/><line y1="15.076" transform="translate(3496.358 350.055)" stroke-width="3.576" stroke="#ff7856" stroke-linecap="round" stroke-linejoin="round" fill="none"/><line y1="15.076" transform="translate(3503.896 350.055)" stroke-width="3.576" stroke="#ff7856" stroke-linecap="round" stroke-linejoin="round" fill="none"/><line y1="15.076" transform="translate(3511.434 350.055)" stroke-width="3.576" stroke="#ff7856" stroke-linecap="round" stroke-linejoin="round" fill="none"/><line y1="15.076" transform="translate(3398.364 357.592)" stroke-width="3.576" stroke="#ff7856" stroke-linecap="round" stroke-linejoin="round" fill="none"/><line y1="15.076" transform="translate(3405.901 357.592)" stroke-width="3.576" stroke="#ff7856" stroke-linecap="round" stroke-linejoin="round" fill="none"/><line y1="15.076" transform="translate(3413.44 357.592)" stroke-width="3.576" stroke="#ff7856" stroke-linecap="round" stroke-linejoin="round" fill="none"/><line y1="15.076" transform="translate(3420.978 357.592)" stroke-width="3.576" stroke="#ff7856" stroke-linecap="round" stroke-linejoin="round" fill="none"/><line y1="15.076" transform="translate(3428.516 357.592)" stroke-width="3.576" stroke="#ff7856" stroke-linecap="round" stroke-linejoin="round" fill="none"/><line y1="15.076" transform="translate(3436.054 357.592)" stroke-width="3.576" stroke="#ff7856" stroke-linecap="round" stroke-linejoin="round" fill="none"/><line y1="15.076" transform="translate(3443.592 357.592)" stroke-width="3.576" stroke="#ff7856" stroke-linecap="round" stroke-linejoin="round" fill="none"/><line y1="15.076" transform="translate(3451.13 357.592)" stroke-width="3.576" stroke="#ff7856" stroke-linecap="round" stroke-linejoin="round" fill="none"/><line y1="15.076" transform="translate(3458.668 357.592)" stroke-width="3.576" stroke="#ff7856" stroke-linecap="round" stroke-linejoin="round" fill="none"/><line y1="15.076" transform="translate(3466.206 357.592)" stroke-width="3.576" stroke="#ff7856" stroke-linecap="round" stroke-linejoin="round" fill="none"/><line y1="15.076" transform="translate(3473.744 357.592)" stroke-width="3.576" stroke="#ff7856" stroke-linecap="round" stroke-linejoin="round" fill="none"/><line y1="15.076" transform="translate(3481.282 357.592)" stroke-width="3.576" stroke="#ff7856" stroke-linecap="round" stroke-linejoin="round" fill="none"/><line y1="15.076" transform="translate(3488.82 357.592)" stroke-width="3.576" stroke="#ff7856" stroke-linecap="round" stroke-linejoin="round" fill="none"/><line y1="15.076" transform="translate(3496.358 357.592)" stroke-width="3.576" stroke="#ff7856" stroke-linecap="round" stroke-linejoin="round" fill="none"/><line y1="15.076" transform="translate(3503.896 357.592)" stroke-width="3.576" stroke="#ff7856" stroke-linecap="round" stroke-linejoin="round" fill="none"/><line y1="15.076" transform="translate(3511.434 357.592)" stroke-width="3.576" stroke="#ff7856" stroke-linecap="round" stroke-linejoin="round" fill="none"/><line y1="15.076" transform="translate(3518.972 357.592)" stroke-width="3.576" stroke="#ff7856" stroke-linecap="round" stroke-linejoin="round" fill="none"/><line y1="15.076" transform="translate(3383.288 365.131)" stroke-width="3.576" stroke="#ff7856" stroke-linecap="round" stroke-linejoin="round" fill="none"/><line y1="15.076" transform="translate(3390.825 365.131)" stroke-width="3.576" stroke="#ff7856" stroke-linecap="round" stroke-linejoin="round" fill="none"/><line y1="15.076" transform="translate(3398.364 365.131)" stroke-width="3.576" stroke="#ff7856" stroke-linecap="round" stroke-linejoin="round" fill="none"/><line y1="15.076" transform="translate(3405.901 365.131)" stroke-width="3.576" stroke="#ff7856" stroke-linecap="round" stroke-linejoin="round" fill="none"/><line y1="15.076" transform="translate(3413.44 365.131)" stroke-width="3.576" stroke="#ff7856" stroke-linecap="round" stroke-linejoin="round" fill="none"/><line y1="15.076" transform="translate(3420.978 365.131)" stroke-width="3.576" stroke="#ff7856" stroke-linecap="round" stroke-linejoin="round" fill="none"/><line y1="15.076" transform="translate(3428.516 365.131)" stroke-width="3.576" stroke="#ff7856" stroke-linecap="round" stroke-linejoin="round" fill="none"/><line y1="15.076" transform="translate(3436.054 365.131)" stroke-width="3.576" stroke="#ff7856" stroke-linecap="round" stroke-linejoin="round" fill="none"/><line y1="15.076" transform="translate(3443.592 365.131)" stroke-width="3.576" stroke="#ff7856" stroke-linecap="round" stroke-linejoin="round" fill="none"/><line y1="15.076" transform="translate(3451.13 365.131)" stroke-width="3.576" stroke="#ff7856" stroke-linecap="round" stroke-linejoin="round" fill="none"/><line y1="15.076" transform="translate(3458.668 365.131)" stroke-width="3.576" stroke="#ff7856" stroke-linecap="round" stroke-linejoin="round" fill="none"/><line y1="15.076" transform="translate(3466.206 365.131)" stroke-width="3.576" stroke="#ff7856" stroke-linecap="round" stroke-linejoin="round" fill="none"/><line y1="15.076" transform="translate(3473.744 365.131)" stroke-width="3.576" stroke="#ff7856" stroke-linecap="round" stroke-linejoin="round" fill="none"/><line y1="15.076" transform="translate(3481.282 365.131)" stroke-width="3.576" stroke="#ff7856" stroke-linecap="round" stroke-linejoin="round" fill="none"/><line y1="15.076" transform="translate(3488.82 365.131)" stroke-width="3.576" stroke="#ff7856" stroke-linecap="round" stroke-linejoin="round" fill="none"/><line y1="15.076" transform="translate(3496.358 365.131)" stroke-width="3.576" stroke="#ff7856" stroke-linecap="round" stroke-linejoin="round" fill="none"/><line y1="15.076" transform="translate(3503.896 365.131)" stroke-width="3.576" stroke="#ff7856" stroke-linecap="round" stroke-linejoin="round" fill="none"/><line y1="15.076" transform="translate(3511.434 365.131)" stroke-width="3.576" stroke="#ff7856" stroke-linecap="round" stroke-linejoin="round" fill="none"/><line y1="15.076" transform="translate(3518.972 365.131)" stroke-width="3.576" stroke="#ff7856" stroke-linecap="round" stroke-linejoin="round" fill="none"/><line y1="15.076" transform="translate(3383.288 372.668)" stroke-width="3.576" stroke="#ff7856" stroke-linecap="round" stroke-linejoin="round" fill="none"/><line y1="15.076" transform="translate(3390.825 372.668)" stroke-width="3.576" stroke="#ff7856" stroke-linecap="round" stroke-linejoin="round" fill="none"/><line y1="15.076" transform="translate(3398.364 372.668)" stroke-width="3.576" stroke="#ff7856" stroke-linecap="round" stroke-linejoin="round" fill="none"/><line y1="15.076" transform="translate(3405.901 372.668)" stroke-width="3.576" stroke="#ff7856" stroke-linecap="round" stroke-linejoin="round" fill="none"/><line y1="15.076" transform="translate(3413.44 372.668)" stroke-width="3.576" stroke="#ff7856" stroke-linecap="round" stroke-linejoin="round" fill="none"/><line y1="15.076" transform="translate(3420.978 372.668)" stroke-width="3.576" stroke="#ff7856" stroke-linecap="round" stroke-linejoin="round" fill="none"/><line y1="15.076" transform="translate(3428.516 372.668)" stroke-width="3.576" stroke="#ff7856" stroke-linecap="round" stroke-linejoin="round" fill="none"/><line y1="15.076" transform="translate(3436.054 372.668)" stroke-width="3.576" stroke="#ff7856" stroke-linecap="round" stroke-linejoin="round" fill="none"/><line y1="15.076" transform="translate(3443.592 372.668)" stroke-width="3.576" stroke="#ff7856" stroke-linecap="round" stroke-linejoin="round" fill="none"/><line y1="15.076" transform="translate(3466.206 372.668)" stroke-width="3.576" stroke="#ff7856" stroke-linecap="round" stroke-linejoin="round" fill="none"/><line y1="15.076" transform="translate(3473.744 372.668)" stroke-width="3.576" stroke="#ff7856" stroke-linecap="round" stroke-linejoin="round" fill="none"/><line y1="15.076" transform="translate(3481.282 372.668)" stroke-width="3.576" stroke="#ff7856" stroke-linecap="round" stroke-linejoin="round" fill="none"/><line y1="15.076" transform="translate(3488.82 372.668)" stroke-width="3.576" stroke="#ff7856" stroke-linecap="round" stroke-linejoin="round" fill="none"/><line y1="15.076" transform="translate(3496.358 372.668)" stroke-width="3.576" stroke="#ff7856" stroke-linecap="round" stroke-linejoin="round" fill="none"/><line y1="15.076" transform="translate(3503.896 372.668)" stroke-width="3.576" stroke="#ff7856" stroke-linecap="round" stroke-linejoin="round" fill="none"/><line y1="15.076" transform="translate(3511.434 372.668)" stroke-width="3.576" stroke="#ff7856" stroke-linecap="round" stroke-linejoin="round" fill="none"/><line y1="15.076" transform="translate(3518.972 372.668)" stroke-width="3.576" stroke="#ff7856" stroke-linecap="round" stroke-linejoin="round" fill="none"/><line y1="15.076" transform="translate(3526.511 372.668)" stroke-width="3.576" stroke="#ff7856" stroke-linecap="round" stroke-linejoin="round" fill="none"/></g></g></g></svg>