<?xml version="1.0" encoding="utf-8"?>
<!-- Generator: Adobe Illustrator 18.0.0, SVG Export Plug-In . SVG Version: 6.00 Build 0)  -->
<!DOCTYPE svg PUBLIC "-//W3C//DTD SVG 1.1//EN" "http://www.w3.org/Graphics/SVG/1.1/DTD/svg11.dtd">
<svg version="1.1" id="Layer_1" xmlns="http://www.w3.org/2000/svg" xmlns:xlink="http://www.w3.org/1999/xlink" x="0px" y="0px"
	 viewBox="0 0 600 286.7" enable-background="new 0 0 600 286.7" xml:space="preserve">
<pattern  width="28.8" height="28.8" patternUnits="userSpaceOnUse" id="New_Pattern_Swatch_8" viewBox="2.9 -31.7 28.8 28.8" overflow="visible">
	<g>
		<polygon fill="none" points="2.9,-31.7 31.7,-31.7 31.7,-2.9 2.9,-2.9 		"/>
		<g>
			<path fill="#F3765A" d="M31.7,0c1.6,0,2.9-1.3,2.9-2.9c0-1.6-1.3-2.9-2.9-2.9c-1.6,0-2.9,1.3-2.9,2.9C28.8-1.3,30.1,0,31.7,0z"/>
			<path fill="#F3765A" d="M17.3,0c1.6,0,2.9-1.3,2.9-2.9c0-1.6-1.3-2.9-2.9-2.9c-1.6,0-2.9,1.3-2.9,2.9C14.4-1.3,15.7,0,17.3,0z"/>
			<path fill="#F3765A" d="M31.7-14.4c1.6,0,2.9-1.3,2.9-2.9s-1.3-2.9-2.9-2.9c-1.6,0-2.9,1.3-2.9,2.9S30.1-14.4,31.7-14.4z"/>
			<path fill="#F3765A" d="M17.3-14.4c1.6,0,2.9-1.3,2.9-2.9s-1.3-2.9-2.9-2.9c-1.6,0-2.9,1.3-2.9,2.9S15.7-14.4,17.3-14.4z"/>
			<path fill="#F3765A" d="M10.1-7.2c1.6,0,2.9-1.3,2.9-2.9c0-1.6-1.3-2.9-2.9-2.9c-1.6,0-2.9,1.3-2.9,2.9C7.2-8.5,8.5-7.2,10.1-7.2
				z"/>
			<path fill="#F3765A" d="M24.5-7.2c1.6,0,2.9-1.3,2.9-2.9c0-1.6-1.3-2.9-2.9-2.9c-1.6,0-2.9,1.3-2.9,2.9
				C21.6-8.5,22.9-7.2,24.5-7.2z"/>
			<path fill="#F3765A" d="M10.1-21.6c1.6,0,2.9-1.3,2.9-2.9c0-1.6-1.3-2.9-2.9-2.9c-1.6,0-2.9,1.3-2.9,2.9
				C7.2-22.9,8.5-21.6,10.1-21.6z"/>
			<path fill="#F3765A" d="M24.5-21.6c1.6,0,2.9-1.3,2.9-2.9c0-1.6-1.3-2.9-2.9-2.9c-1.6,0-2.9,1.3-2.9,2.9
				C21.6-22.9,22.9-21.6,24.5-21.6z"/>
		</g>
		<g>
			<path fill="#F3765A" d="M2.9,0c1.6,0,2.9-1.3,2.9-2.9c0-1.6-1.3-2.9-2.9-2.9C1.3-5.8,0-4.5,0-2.9C0-1.3,1.3,0,2.9,0z"/>
			<path fill="#F3765A" d="M2.9-14.4c1.6,0,2.9-1.3,2.9-2.9s-1.3-2.9-2.9-2.9c-1.6,0-2.9,1.3-2.9,2.9S1.3-14.4,2.9-14.4z"/>
		</g>
		<g>
			<path fill="#F3765A" d="M31.7-28.8c1.6,0,2.9-1.3,2.9-2.9c0-1.6-1.3-2.9-2.9-2.9c-1.6,0-2.9,1.3-2.9,2.9
				C28.8-30.1,30.1-28.8,31.7-28.8z"/>
			<path fill="#F3765A" d="M17.3-28.8c1.6,0,2.9-1.3,2.9-2.9c0-1.6-1.3-2.9-2.9-2.9c-1.6,0-2.9,1.3-2.9,2.9
				C14.4-30.1,15.7-28.8,17.3-28.8z"/>
		</g>
		<g>
			<path fill="#F3765A" d="M2.9-28.8c1.6,0,2.9-1.3,2.9-2.9c0-1.6-1.3-2.9-2.9-2.9c-1.6,0-2.9,1.3-2.9,2.9C0-30.1,1.3-28.8,2.9-28.8
				z"/>
		</g>
	</g>
</pattern>
<g>
	<path fill="#F3765A" d="M352.6,162.3c3.8,15.8,16.6,27,36,27c11.7,0,24.3-4.4,31.9-14.5l22.9,18.3c-11.7,16.6-32.5,26.5-54.6,26.5
		c-39,0-69-29.2-69-67.1c0-36.8,25.9-68.5,67.1-68.5c38.2,0,65.2,31.1,65.2,67.7c0,3.5-0.3,7.4-0.8,10.6H352.6z M418.3,137.7
		c-1.9-13.1-15.6-23.2-31.7-23.2c-15.6,0-28.1,9.3-33,23.2H418.3z"/>
	<path fill="#F3765A" d="M509.4,146.2V216h-33.6V86.4h33.6V96"/>
	<g>
		<defs>
			<path id="SVGID_1_" d="M509.4,96c7.4-5.5,16.4-12,34.1-12c28.4,0,52.9,16.6,52.9,57.3V216h-33.6v-69.3
				c0-25.1-13.4-30.6-26.7-30.6c-13.4,0-26.7,5.2-26.7,30"/>
		</defs>
		<clipPath id="SVGID_2_">
			<use xlink:href="#SVGID_1_"  overflow="visible"/>
		</clipPath>
		<g clip-path="url(#SVGID_2_)">
			
				<image overflow="visible" width="850" height="567" xlink:href="685C464C.jpg"  transform="matrix(0.9479 0 0 0.9479 90.8899 -165.0498)">
			</image>
		</g>
	</g>
	<path fill="#F3765A" d="M110.1,151.6c0,19.4-16.1,35.7-36,35.7c-19.6,0-35.7-16.4-35.7-35.7c0-10,4.4-19.2,11.3-25.7H10.4
		c-3.3,7.9-5.1,16.6-5.1,25.7c0,37.4,30.6,67.9,68.8,67.9c38.5,0,69-30.6,69-67.9c0-9.1-1.8-17.8-5.1-25.7H98.7
		C105.7,132.5,110.1,141.7,110.1,151.6z"/>
	<g>
		<defs>
			<path id="SVGID_3_" d="M74.1,2C45.1,2,20.6,19.2,10.4,44h39.3c6.4-6,15-9.8,24.4-9.8c9.5,0,18.2,3.8,24.6,9.8H138
				C127.8,19.2,103.2,2,74.1,2z"/>
		</defs>
		<clipPath id="SVGID_4_">
			<use xlink:href="#SVGID_3_"  overflow="visible"/>
		</clipPath>
		<g clip-path="url(#SVGID_4_)">
			
				<image overflow="visible" width="850" height="567" xlink:href="685C464D.jpg"  transform="matrix(0.9479 0 0 0.9479 -236.0206 -224.7511)">
			</image>
		</g>
	</g>
	<path fill="#F3765A" d="M200.4,96L200.4,96c10.4-8.5,22.6-12,36-12c38.2,0,68.8,30,68.8,67.7c0,37.4-30.6,67.9-68.8,67.9
		c-13.4,0-25.6-3.5-36-12 M200.4,153.3c0.8,18.6,16.6,34.1,36,34.1c19.6,0,35.7-16.4,35.7-35.7c0-19.1-16.1-35.5-35.7-35.5
		c-19.4,0-35.2,15.8-36,34.1V153.3z"/>
	<pattern  id="SVGID_5_" xlink:href="#New_Pattern_Swatch_8" patternTransform="matrix(0.8158 0 0 0.8158 -1156.8918 -1229.4156)">
	</pattern>
	<path fill="url(#SVGID_5_)" d="M200.4,207.6v77.5h-33.6V86.4h33.6V96"/>
	<g>
		<defs>
			<path id="SVGID_6_" d="M388.6,189.3c-19.4,0-32.2-11.2-36-27h-32.1c4.7,33,32.8,57.3,68.3,57.3c22.1,0,42.8-9.8,54.6-26.5
				l-22.9-18.3C412.9,184.9,400.3,189.3,388.6,189.3z"/>
		</defs>
		<clipPath id="SVGID_7_">
			<use xlink:href="#SVGID_6_"  overflow="visible"/>
		</clipPath>
		<g clip-path="url(#SVGID_7_)">
			<line fill="none" stroke="#F9FBEE" stroke-width="4" stroke-miterlimit="10" x1="307.2" y1="215.1" x2="454.4" y2="215.1"/>
			<line fill="none" stroke="#F9FBEE" stroke-width="4" stroke-miterlimit="10" x1="307.2" y1="209.9" x2="454.4" y2="209.9"/>
			<line fill="none" stroke="#F9FBEE" stroke-width="4" stroke-miterlimit="10" x1="307.2" y1="204.8" x2="454.4" y2="204.8"/>
			<line fill="none" stroke="#F9FBEE" stroke-width="4" stroke-miterlimit="10" x1="307.2" y1="199.6" x2="454.4" y2="199.6"/>
			<line fill="none" stroke="#F9FBEE" stroke-width="4" stroke-miterlimit="10" x1="307.2" y1="194.5" x2="454.4" y2="194.5"/>
			<line fill="none" stroke="#F9FBEE" stroke-width="4" stroke-miterlimit="10" x1="307.2" y1="189.3" x2="454.4" y2="189.3"/>
			<line fill="none" stroke="#F9FBEE" stroke-width="4" stroke-miterlimit="10" x1="307.2" y1="184.1" x2="454.4" y2="184.1"/>
			<line fill="none" stroke="#F9FBEE" stroke-width="4" stroke-miterlimit="10" x1="307.2" y1="179" x2="454.4" y2="179"/>
			<line fill="none" stroke="#F9FBEE" stroke-width="4" stroke-miterlimit="10" x1="307.2" y1="173.8" x2="454.4" y2="173.8"/>
			<line fill="none" stroke="#F9FBEE" stroke-width="4" stroke-miterlimit="10" x1="307.2" y1="168.6" x2="454.4" y2="168.6"/>
			<line fill="none" stroke="#F9FBEE" stroke-width="4" stroke-miterlimit="10" x1="307.2" y1="163.5" x2="454.4" y2="163.5"/>
			<line fill="none" stroke="#F9FBEE" stroke-width="4" stroke-miterlimit="10" x1="307.2" y1="220.3" x2="454.4" y2="220.3"/>
			<line fill="none" stroke="#F9FBEE" stroke-width="4" stroke-miterlimit="10" x1="307.2" y1="225.4" x2="454.4" y2="225.4"/>
			<line fill="none" stroke="#F9FBEE" stroke-width="4" stroke-miterlimit="10" x1="307.2" y1="230.6" x2="454.4" y2="230.6"/>
		</g>
	</g>
	<path fill="#F3765A" d="M352.6,162.3h98.8c0.5-3.3,0.8-7.1,0.8-10.6c0-36.6-27-67.7-65.2-67.7c-41.2,0-67.1,31.7-67.1,68.5
		c0,3.3,0.2,6.6,0.7,9.8H352.6z M386.7,114.5c16.1,0,29.7,10.1,31.7,23.2h-64.7C358.6,123.8,371.1,114.5,386.7,114.5z"/>
</g>
</svg>
