<svg xmlns="http://www.w3.org/2000/svg" xmlns:xlink="http://www.w3.org/1999/xlink" viewBox="0 0 639.63 201.16"><defs><style>.cls-1,.cls-5{fill:none;}.cls-2{clip-path:url(#clip-path);}.cls-3{fill:#ffff96;}.cls-4{clip-path:url(#clip-path-3);}.cls-5{stroke:#ffff96;stroke-linecap:round;stroke-linejoin:round;stroke-width:3.58px;}</style><clipPath id="clip-path"><rect class="cls-1" width="639.63" height="201.16"/></clipPath><clipPath id="clip-path-3"><path class="cls-1" d="M155.22,98.45h43.13a39,39,0,0,1,26.52-10.51,39.43,39.43,0,0,1,26.77,10.51h43.18c-11.23-27-38.11-45.76-69.95-45.76-31.62,0-58.44,18.79-69.65,45.76"/></clipPath></defs><title>noba</title><g id="Layer_2" data-name="Layer 2"><g id="FG"><g class="cls-2"><g class="cls-2"><path class="cls-3" d="M95.3,197.28V121.4C95.3,93.92,80.66,87.94,66,87.94S36.74,93.62,36.74,120.8v76.48H0V55.38H36.74V65.84c8.07-6,17.93-13.15,37.35-13.15,31.06,0,57.95,18.22,57.95,62.74v81.85Z"/><path class="cls-3" d="M320.68,197.28V0h36.74V65.84c11.35-9.26,24.8-13.15,39.43-13.15,41.83,0,75.29,32.86,75.29,74.09,0,40.92-33.46,74.38-75.29,74.38-14.63,0-28.08-3.88-39.43-13.14v9.26Zm36.74-68.71c.9,20.31,18.22,37.34,39.43,37.34A39.46,39.46,0,0,0,436,126.78c0-20.91-17.63-38.84-39.14-38.84-21.21,0-38.53,17.33-39.43,37.34Z"/><path class="cls-3" d="M602.88,197.28V188c-11.35,9.26-24.79,13.14-39.43,13.14-41.82,0-75.28-33.46-75.28-74.38,0-41.23,33.46-74.09,75.28-74.09,14.34,0,27.78,3.88,39.43,13.15V55.38h36.75v141.9ZM563.45,87.94c-21.51,0-39.13,17.93-39.13,38.84a39.46,39.46,0,0,0,39.13,39.13c21.81,0,39.43-17.92,39.43-39.13,0-20.91-17.62-38.84-39.43-38.84"/><path class="cls-3" d="M224.87,201.16c42.12,0,75.58-33.46,75.58-74.38a73.43,73.43,0,0,0-5.63-28.33H251.64a38.66,38.66,0,0,1,12.66,28.33c0,21.21-17.62,39.13-39.43,39.13a39.46,39.46,0,0,1-39.13-39.13,38.8,38.8,0,0,1,12.61-28.33H155.22a73.43,73.43,0,0,0-5.63,28.33c0,40.92,33.46,74.38,75.28,74.38"/></g><g class="cls-4"><line class="cls-5" x1="187.33" y1="52.96" x2="187.33" y2="37.89"/><line class="cls-5" x1="194.87" y1="52.96" x2="194.87" y2="37.89"/><line class="cls-5" x1="202.41" y1="52.96" x2="202.41" y2="37.89"/><line class="cls-5" x1="209.94" y1="52.96" x2="209.94" y2="37.89"/><line class="cls-5" x1="217.48" y1="52.96" x2="217.48" y2="37.89"/><line class="cls-5" x1="225.02" y1="52.96" x2="225.02" y2="37.89"/><line class="cls-5" x1="232.55" y1="52.96" x2="232.55" y2="37.89"/><line class="cls-5" x1="240.09" y1="52.96" x2="240.09" y2="37.89"/><line class="cls-5" x1="247.63" y1="52.96" x2="247.63" y2="37.89"/><line class="cls-5" x1="255.16" y1="52.96" x2="255.16" y2="37.89"/><line class="cls-5" x1="187.33" y1="60.5" x2="187.33" y2="45.43"/><line class="cls-5" x1="194.87" y1="60.5" x2="194.87" y2="45.43"/><line class="cls-5" x1="202.41" y1="60.5" x2="202.41" y2="45.43"/><line class="cls-5" x1="209.94" y1="60.5" x2="209.94" y2="45.43"/><line class="cls-5" x1="217.48" y1="60.5" x2="217.48" y2="45.43"/><line class="cls-5" x1="225.02" y1="60.5" x2="225.02" y2="45.43"/><line class="cls-5" x1="232.55" y1="60.5" x2="232.55" y2="45.43"/><line class="cls-5" x1="240.09" y1="60.5" x2="240.09" y2="45.43"/><line class="cls-5" x1="247.63" y1="60.5" x2="247.63" y2="45.43"/><line class="cls-5" x1="255.16" y1="60.5" x2="255.16" y2="45.43"/><line class="cls-5" x1="179.8" y1="68.04" x2="179.8" y2="52.96"/><line class="cls-5" x1="187.33" y1="68.04" x2="187.33" y2="52.96"/><line class="cls-5" x1="194.87" y1="68.04" x2="194.87" y2="52.96"/><line class="cls-5" x1="202.41" y1="68.04" x2="202.41" y2="52.96"/><line class="cls-5" x1="209.94" y1="68.04" x2="209.94" y2="52.96"/><line class="cls-5" x1="217.48" y1="68.04" x2="217.48" y2="52.96"/><line class="cls-5" x1="225.02" y1="68.04" x2="225.02" y2="52.96"/><line class="cls-5" x1="232.55" y1="68.04" x2="232.55" y2="52.96"/><line class="cls-5" x1="240.09" y1="68.04" x2="240.09" y2="52.96"/><line class="cls-5" x1="247.63" y1="68.04" x2="247.63" y2="52.96"/><line class="cls-5" x1="255.16" y1="68.04" x2="255.16" y2="52.96"/><line class="cls-5" x1="262.7" y1="68.04" x2="262.7" y2="52.96"/><line class="cls-5" x1="270.24" y1="68.04" x2="270.24" y2="52.96"/><line class="cls-5" x1="172.26" y1="75.57" x2="172.26" y2="60.5"/><line class="cls-5" x1="179.8" y1="75.57" x2="179.8" y2="60.5"/><line class="cls-5" x1="187.33" y1="75.57" x2="187.33" y2="60.5"/><line class="cls-5" x1="194.87" y1="75.57" x2="194.87" y2="60.5"/><line class="cls-5" x1="202.41" y1="75.57" x2="202.41" y2="60.5"/><line class="cls-5" x1="209.94" y1="75.57" x2="209.94" y2="60.5"/><line class="cls-5" x1="217.48" y1="75.57" x2="217.48" y2="60.5"/><line class="cls-5" x1="225.02" y1="75.57" x2="225.02" y2="60.5"/><line class="cls-5" x1="232.55" y1="75.57" x2="232.55" y2="60.5"/><line class="cls-5" x1="240.09" y1="75.57" x2="240.09" y2="60.5"/><line class="cls-5" x1="247.63" y1="75.57" x2="247.63" y2="60.5"/><line class="cls-5" x1="255.16" y1="75.57" x2="255.16" y2="60.5"/><line class="cls-5" x1="262.7" y1="75.57" x2="262.7" y2="60.5"/><line class="cls-5" x1="270.24" y1="75.57" x2="270.24" y2="60.5"/><line class="cls-5" x1="277.77" y1="75.57" x2="277.77" y2="60.5"/><line class="cls-5" x1="164.72" y1="83.11" x2="164.72" y2="68.04"/><line class="cls-5" x1="172.26" y1="83.11" x2="172.26" y2="68.04"/><line class="cls-5" x1="179.8" y1="83.11" x2="179.8" y2="68.04"/><line class="cls-5" x1="187.33" y1="83.11" x2="187.33" y2="68.04"/><line class="cls-5" x1="194.87" y1="83.11" x2="194.87" y2="68.04"/><line class="cls-5" x1="202.41" y1="83.11" x2="202.41" y2="68.04"/><line class="cls-5" x1="209.94" y1="83.11" x2="209.94" y2="68.04"/><line class="cls-5" x1="217.48" y1="83.11" x2="217.48" y2="68.04"/><line class="cls-5" x1="225.02" y1="83.11" x2="225.02" y2="68.04"/><line class="cls-5" x1="232.55" y1="83.11" x2="232.55" y2="68.04"/><line class="cls-5" x1="240.09" y1="83.11" x2="240.09" y2="68.04"/><line class="cls-5" x1="247.63" y1="83.11" x2="247.63" y2="68.04"/><line class="cls-5" x1="255.16" y1="83.11" x2="255.16" y2="68.04"/><line class="cls-5" x1="262.7" y1="83.11" x2="262.7" y2="68.04"/><line class="cls-5" x1="270.24" y1="83.11" x2="270.24" y2="68.04"/><line class="cls-5" x1="277.77" y1="83.11" x2="277.77" y2="68.04"/><line class="cls-5" x1="285.31" y1="83.11" x2="285.31" y2="68.04"/><line class="cls-5" x1="149.65" y1="90.65" x2="149.65" y2="75.57"/><line class="cls-5" x1="157.19" y1="90.65" x2="157.19" y2="75.57"/><line class="cls-5" x1="164.72" y1="90.65" x2="164.72" y2="75.57"/><line class="cls-5" x1="172.26" y1="90.65" x2="172.26" y2="75.57"/><line class="cls-5" x1="179.8" y1="90.65" x2="179.8" y2="75.57"/><line class="cls-5" x1="187.33" y1="90.65" x2="187.33" y2="75.57"/><line class="cls-5" x1="194.87" y1="90.65" x2="194.87" y2="75.57"/><line class="cls-5" x1="202.41" y1="90.65" x2="202.41" y2="75.57"/><line class="cls-5" x1="209.94" y1="90.65" x2="209.94" y2="75.57"/><line class="cls-5" x1="217.48" y1="90.65" x2="217.48" y2="75.57"/><line class="cls-5" x1="225.02" y1="90.65" x2="225.02" y2="75.57"/><line class="cls-5" x1="232.55" y1="90.65" x2="232.55" y2="75.57"/><line class="cls-5" x1="240.09" y1="90.65" x2="240.09" y2="75.57"/><line class="cls-5" x1="247.63" y1="90.65" x2="247.63" y2="75.57"/><line class="cls-5" x1="255.16" y1="90.65" x2="255.16" y2="75.57"/><line class="cls-5" x1="262.7" y1="90.65" x2="262.7" y2="75.57"/><line class="cls-5" x1="270.24" y1="90.65" x2="270.24" y2="75.57"/><line class="cls-5" x1="277.77" y1="90.65" x2="277.77" y2="75.57"/><line class="cls-5" x1="285.31" y1="90.65" x2="285.31" y2="75.57"/><line class="cls-5" x1="149.65" y1="98.18" x2="149.65" y2="83.11"/><line class="cls-5" x1="157.19" y1="98.18" x2="157.19" y2="83.11"/><line class="cls-5" x1="164.72" y1="98.18" x2="164.72" y2="83.11"/><line class="cls-5" x1="172.26" y1="98.18" x2="172.26" y2="83.11"/><line class="cls-5" x1="179.8" y1="98.18" x2="179.8" y2="83.11"/><line class="cls-5" x1="187.33" y1="98.18" x2="187.33" y2="83.11"/><line class="cls-5" x1="194.87" y1="98.18" x2="194.87" y2="83.11"/><line class="cls-5" x1="202.41" y1="98.18" x2="202.41" y2="83.11"/><line class="cls-5" x1="209.94" y1="98.18" x2="209.94" y2="83.11"/><line class="cls-5" x1="232.55" y1="98.18" x2="232.55" y2="83.11"/><line class="cls-5" x1="240.09" y1="98.18" x2="240.09" y2="83.11"/><line class="cls-5" x1="247.63" y1="98.18" x2="247.63" y2="83.11"/><line class="cls-5" x1="255.16" y1="98.18" x2="255.16" y2="83.11"/><line class="cls-5" x1="262.7" y1="98.18" x2="262.7" y2="83.11"/><line class="cls-5" x1="270.24" y1="98.18" x2="270.24" y2="83.11"/><line class="cls-5" x1="277.77" y1="98.18" x2="277.77" y2="83.11"/><line class="cls-5" x1="285.31" y1="98.18" x2="285.31" y2="83.11"/><line class="cls-5" x1="292.85" y1="98.18" x2="292.85" y2="83.11"/></g></g></g></g></svg>